<?xml version="1.0" encoding="utf-8"?>
<!-- Generator: Adobe Illustrator 16.0.0, SVG Export Plug-In . SVG Version: 6.00 Build 0)  -->
<!DOCTYPE svg PUBLIC "-//W3C//DTD SVG 1.1//EN" "http://www.w3.org/Graphics/SVG/1.1/DTD/svg11.dtd">
<svg version="1.1" id="Layer_1" xmlns="http://www.w3.org/2000/svg" xmlns:xlink="http://www.w3.org/1999/xlink" x="0px" y="0px"
	 width="64px" height="64px" viewBox="0 0 64 64" enable-background="new 0 0 64 64" xml:space="preserve">
<path fill-rule="evenodd" clip-rule="evenodd" fill="#4C75A3" d="M56.619,31.765c-1.258,1.593-2.558,3.241-2.589,3.726
	c0.104,0.379,1.357,1.518,2.572,2.621l0.138,0.126c3.105,2.821,5.351,5.231,6.427,7.161c1.184,1.928,0.888,3.401,0.435,4.252
	c-1.069,1.99-3.7,2.311-4.216,2.342c0,0-6.726,0.01-8.688,0.018c-0.907-0.018-2.616-0.25-4.57-1.564
	c-1.394-0.938-2.628-2.324-3.82-3.665c-0.739-0.831-1.729-2.759-2.306-2.759c-1.105,0-2-0.895-2-2s0.895-2,2-2
	c0.146,0,0.289,0.017,0.425,0.049c1.905,0.239,3.205,2.017,4.895,3.915c1.03,1.156,2.094,2.572,3.071,3.229
	c1.384,0.932,2.363,0.834,2.536,0.812l0.179,0.026l8.059-0.038c0.249-0.024,0.555-0.1,0.764-0.18
	c-0.036-0.085-0.093-0.257-0.177-0.393l-0.095-0.165c-0.847-1.513-2.927-3.704-5.637-6.167l-0.138-0.126
	c-5.241-4.764-4.941-5.901-0.43-11.617c0.589-0.747,1.269-1.605,2.029-2.602c3.076-4.017,4.121-5.917,4.393-6.751
	c-0.32-0.024-0.836,0.005-0.887,0.012L58.77,20.01l-9.166-0.008L49.599,20c-0.271,0.693-1.636,4.15-3.433,7.139
	c-4.07,6.771-4.97,7.894-6.504,7.894c-0.536,0-1.307-0.15-1.753-0.432c-2.226-1.41-1.988-4.475-1.925-6.785
	c-0.018,0.672-0.003-3.227-0.005-5.408c0-1.688,0.114-3.573-0.175-3.92c0,0-0.082-0.07-0.378-0.141
	c-0.814-0.196-1.312-0.33-3.762-0.33c-0.432,0-1.227-0.007-1.763-0.007c-0.819,0-2.355-0.032-3.646,0.128
	c0.133,0.139,0.262,0.289,0.381,0.451c1.204,1.629,1.253,4.434,1.251,5.176c0.397,5.932-0.337,9.467-2.253,10.507
	c-0.484,0.262-1.101,0.749-1.634,0.749c-2.223,0-4.378-2.09-7.854-7.974c-1.886-3.195-3.289-6.592-3.348-6.737
	c-0.012-0.023-0.078-0.126-0.111-0.162c-0.046-0.029-0.216-0.09-0.371-0.131l-8.026-0.01c1.279,2.808,7.194,15.341,13.626,21.903
	c4.752,4.849,9.949,5.859,12.192,6.061c1.054,0.059,1.893,0.921,1.893,1.988c0,1.104-0.896,2-2,2c-0.075,0-0.143-0.015-0.216-0.022
	c-2.988-0.264-9.132-1.575-14.754-7.312C7.267,36.705,0.603,21.479,0.325,20.836c-0.222-0.569-0.75-2.262,0.341-3.529
	c0.95-1.101,2.577-1.261,3.234-1.278l8.788,0.005l0.17-0.036c0.213,0.036,1.326,0.306,2.239,0.965
	c0.866,0.623,1.3,1.554,1.414,1.823c0.019,0.054,1.364,3.362,3.098,6.298c1.966,3.331,3.455,4.476,4.09,5.138
	c0.276-1.339,0.383-3.913,0.223-6.262l-0.005-0.078l0.003-0.08c0.007-1.013,0.044-2.453-0.255-2.855
	c-0.175-0.235-0.725-0.461-1.313-0.538c-0.958-0.129-2.126-0.849-2.313-1.777c-0.422-2.104,1.853-3.084,3.033-3.658
	c1.886-0.919,4.991-1.001,8.635-0.965c2.623,0.029,3.51,0.196,4.66,0.473c3.871,0.929,3.611,3.712,3.611,7.554
	c0,2.306-0.017,6.685,0.008,5.889c-0.018,0.616-0.049,1.176,0.043,1.928c0.682-0.701,0.866-1.663,2.691-4.698
	c1.794-2.987,3.169-6.646,3.184-6.682l0.055-0.131c0.134-0.286,0.643-1.258,1.586-1.809c0.883-0.519,1.874-0.511,2.284-0.479
	l8.821-0.024c0.167-0.015,0.487-0.039,0.875-0.039c3.006,0,3.961,1.455,4.265,2.284c0.56,1.524,0.218,3.893-5.105,10.846
	C57.906,30.131,57.218,31.003,56.619,31.765L56.619,31.765z M50.697,52.01c0.033,0,0.075,0.002,0.106,0.002
	C49.902,52.012,50.023,52.012,50.697,52.01L50.697,52.01z M38.001,48.021c1.104,0,2,0.895,2,2s-0.896,2-2,2c-1.105,0-2-0.895-2-2
	S36.896,48.021,38.001,48.021L38.001,48.021z"/>
</svg>
